<svg xmlns="http://www.w3.org/2000/svg" shape-rendering="geometricPrecision" text-rendering="geometricPrecision" image-rendering="optimizeQuality" fill-rule="evenodd" clip-rule="evenodd" viewBox="0 0 464 511.863"><path d="M21.123 259.247h16.714V52.395C37.837 23.599 61.437 0 90.232 0h230.505a7.998 7.998 0 016.39 3.183l96.876 104.809a7.937 7.937 0 012.118 5.411h.041v145.844h16.714c11.618 0 21.124 9.525 21.124 21.124v163.863c0 11.599-9.526 21.124-21.124 21.124h-17.058c-3.001 25.878-25.473 46.505-52.051 46.505H90.232c-26.721 0-49.082-20.526-52.055-46.505H21.123C9.526 465.358 0 455.853 0 444.234V280.371c0-11.619 9.506-21.124 21.123-21.124zm32.731 0h356.292V136.525h-32.219v-.033h-.124c-19.111-.302-34.068-5.373-44.736-14.486-11.073-9.458-17.282-22.969-18.52-39.763l-.075-1.098V16.016H90.232c-20.031 0-36.378 16.347-36.378 36.379v206.852zm355.795 206.111H54.344c2.862 17.157 17.981 30.488 35.888 30.488h283.535c17.803 0 32.994-13.394 35.882-30.488zm-177.827-332.58c1.2-5.152 6.352-8.357 11.505-7.158 5.153 1.2 8.357 6.352 7.158 11.505l-20.773 88.972c-1.199 5.153-6.352 8.358-11.504 7.158-5.153-1.199-8.358-6.352-7.158-11.505l20.772-88.972zm-32.519 71.317c3.972 3.477 4.377 9.521.9 13.493-3.478 3.973-9.521 4.377-13.494.9l-36.354-31.854c-3.972-3.477-4.377-9.521-.9-13.493.295-.336.606-.644.933-.927l36.321-31.826c3.973-3.478 10.016-3.073 13.494.899 3.477 3.973 3.072 10.016-.9 13.494l-28.14 24.656 28.14 24.658zm77.99 14.393c-3.972 3.477-10.016 3.073-13.493-.9-3.478-3.972-3.073-10.016.899-13.493l28.14-24.658-28.14-24.656c-3.972-3.478-4.377-9.521-.899-13.494 3.477-3.972 9.521-4.377 13.493-.899l36.318 31.826c.328.283.639.591.933.927 3.477 3.972 3.073 10.016-.899 13.493l-36.352 31.854zm53.174-188.216V81.11c.913 12.412 5.265 22.192 12.97 28.775 7.822 6.682 19.34 10.418 34.49 10.676v-.03h32.219v-4.052l-79.679-86.207zM82.177 404.76l-2.719-21.738h11.277c2.809 0 4.597-.385 5.367-1.155.77-.77 1.155-1.744 1.155-2.922v-37.363H85.981v-21.738h38.45v62.499c0 7.337-1.813 12.907-5.435 16.712-3.624 3.804-8.831 5.705-15.626 5.705H82.177zm53.462-1.493l3.804-22.418c8.333 2.083 15.827 3.122 22.484 3.122 6.66 0 12.025-.269 16.101-.814v-6.792l-12.228-1.087c-11.05-.998-18.634-3.648-22.758-7.95-4.121-4.302-6.182-10.665-6.182-19.089 0-11.593 2.515-19.565 7.541-23.911 5.029-4.35 13.565-6.523 25.611-6.523 12.047 0 22.916 1.133 32.61 3.397l-3.397 21.739c-8.424-1.359-15.172-2.039-20.244-2.039-5.073 0-9.376.226-12.908.68v6.657l9.782.952c11.865 1.177 20.063 4.008 24.591 8.492 4.531 4.484 6.795 10.71 6.795 18.682 0 5.705-.77 10.528-2.311 14.47-1.54 3.94-3.372 6.927-5.502 8.965-2.129 2.039-5.141 3.602-9.037 4.688-3.892 1.087-7.311 1.744-10.255 1.97-2.944.228-6.864.341-11.755.341-11.774 0-22.687-1.177-32.742-3.532zm80.771-40.896c0-15.491 2.897-26.789 8.696-33.901 5.796-7.111 16.258-10.665 31.386-10.665 15.125 0 25.587 3.554 31.383 10.665 5.796 7.112 8.693 18.41 8.693 33.901 0 7.697-.611 14.176-1.832 19.427-1.224 5.254-3.329 9.829-6.316 13.725-2.991 3.892-7.112 6.748-12.363 8.558-5.255 1.813-11.777 2.718-19.565 2.718-7.791 0-14.313-.905-19.565-2.718-5.254-1.81-9.375-4.666-12.366-8.558-2.987-3.896-5.094-8.471-6.316-13.725-1.224-5.251-1.835-11.73-1.835-19.427zm29.21-14.132v35.325h11.279c3.714 0 6.407-.429 8.083-1.29 1.675-.861 2.514-2.831 2.514-5.909V341.04h-11.414c-3.623 0-6.272.429-7.947 1.29-1.676.861-2.515 2.831-2.515 5.909zm113.379 56.521l-22.146-36.684h-.544v36.684h-27.174v-84.916h25.545l22.145 36.684h.545v-36.684h27.172v84.916h-25.543z"/></svg>